<?xml version="1.0" encoding="UTF-8"?>
<svg version="1.1" xmlns="http://www.w3.org/2000/svg" width="32" height="32">
<path d="M0 0 C3.3 0 6.6 0 10 0 C10 0.66 10 1.32 10 2 C13.96 2 17.92 2 22 2 C22 2.66 22 3.32 22 4 C22.66 4 23.32 4 24 4 C24.05498128 5.37453198 24.09322822 6.74973578 24.125 8.125 C24.14820312 8.89070312 24.17140625 9.65640625 24.1953125 10.4453125 C24 13 24 13 22 19 C14.74 19 7.48 19 0 19 C0 12.73 0 6.46 0 0 Z " fill="#1E97F3" transform="translate(4,7)"/>
<path d="M0 0 C3.3 0 6.6 0 10 0 C10 0.66 10 1.32 10 2 C13.96 2 17.92 2 22 2 C22 2.99 22 3.98 22 5 C16.06 5.33 10.12 5.66 4 6 C3.01 9.3 2.02 12.6 1 16 C0.67 16 0.34 16 0 16 C0 10.72 0 5.44 0 0 Z " fill="#1B70B6" transform="translate(4,7)"/>
</svg>
